<mxfile host="app.diagrams.net" modified="2023-10-10T03:05:34.621Z" agent="Mozilla/5.0 (Windows NT 10.0; Win64; x64) AppleWebKit/537.36 (KHTML, like Gecko) Chrome/117.0.0.0 Safari/537.36" etag="rbkR0Ri8owoO2zIUXCNj" version="22.0.4" type="device" pages="2">
  <diagram name="Trang-1" id="YVOwTTcvPVqcPgHP7bQD">
    <mxGraphModel dx="1290" dy="573" grid="1" gridSize="10" guides="1" tooltips="1" connect="1" arrows="1" fold="1" page="1" pageScale="1" pageWidth="827" pageHeight="1169" math="0" shadow="0">
      <root>
        <mxCell id="0" />
        <mxCell id="1" parent="0" />
        <mxCell id="rw_lriZMITa9iQaK21Hy-14" style="edgeStyle=orthogonalEdgeStyle;rounded=0;orthogonalLoop=1;jettySize=auto;html=1;exitX=0.5;exitY=1;exitDx=0;exitDy=0;" parent="1" edge="1">
          <mxGeometry relative="1" as="geometry">
            <mxPoint x="150" y="290" as="sourcePoint" />
            <mxPoint x="150" y="290" as="targetPoint" />
          </mxGeometry>
        </mxCell>
        <mxCell id="2oSJLv5EbDAendmqQmss-5" style="edgeStyle=orthogonalEdgeStyle;rounded=0;orthogonalLoop=1;jettySize=auto;html=1;exitX=0.5;exitY=0;exitDx=0;exitDy=0;exitPerimeter=0;entryX=0;entryY=0.5;entryDx=0;entryDy=0;" parent="1" source="2oSJLv5EbDAendmqQmss-1" target="2oSJLv5EbDAendmqQmss-2" edge="1">
          <mxGeometry relative="1" as="geometry">
            <Array as="points">
              <mxPoint x="115" y="150" />
              <mxPoint x="250" y="150" />
            </Array>
          </mxGeometry>
        </mxCell>
        <mxCell id="2oSJLv5EbDAendmqQmss-8" style="edgeStyle=orthogonalEdgeStyle;rounded=0;orthogonalLoop=1;jettySize=auto;html=1;exitX=0.5;exitY=0.5;exitDx=0;exitDy=0;exitPerimeter=0;" parent="1" source="2oSJLv5EbDAendmqQmss-1" target="2oSJLv5EbDAendmqQmss-6" edge="1">
          <mxGeometry relative="1" as="geometry">
            <Array as="points">
              <mxPoint x="260" y="200" />
            </Array>
          </mxGeometry>
        </mxCell>
        <mxCell id="2oSJLv5EbDAendmqQmss-11" style="edgeStyle=orthogonalEdgeStyle;rounded=0;orthogonalLoop=1;jettySize=auto;html=1;exitX=1;exitY=1;exitDx=0;exitDy=0;exitPerimeter=0;" parent="1" edge="1">
          <mxGeometry relative="1" as="geometry">
            <mxPoint x="130" y="230" as="sourcePoint" />
            <mxPoint x="260" y="390" as="targetPoint" />
            <Array as="points">
              <mxPoint x="130" y="390" />
            </Array>
          </mxGeometry>
        </mxCell>
        <mxCell id="2oSJLv5EbDAendmqQmss-1" value="nhân viên kho" style="shape=umlActor;verticalLabelPosition=bottom;verticalAlign=top;html=1;outlineConnect=0;" parent="1" vertex="1">
          <mxGeometry x="100" y="170" width="30" height="60" as="geometry" />
        </mxCell>
        <mxCell id="2oSJLv5EbDAendmqQmss-2" value="quản lý hàng hóa" style="ellipse;whiteSpace=wrap;html=1;" parent="1" vertex="1">
          <mxGeometry x="250" y="120" width="140" height="70" as="geometry" />
        </mxCell>
        <mxCell id="2oSJLv5EbDAendmqQmss-6" value="nhập hàng" style="ellipse;whiteSpace=wrap;html=1;" parent="1" vertex="1">
          <mxGeometry x="250" y="260" width="140" height="60" as="geometry" />
        </mxCell>
        <mxCell id="2oSJLv5EbDAendmqQmss-9" value="kiểm tra tồn kho" style="ellipse;whiteSpace=wrap;html=1;" parent="1" vertex="1">
          <mxGeometry x="260" y="360" width="140" height="60" as="geometry" />
        </mxCell>
        <mxCell id="2oSJLv5EbDAendmqQmss-12" value="thêm sản phẩm" style="ellipse;whiteSpace=wrap;html=1;" parent="1" vertex="1">
          <mxGeometry x="490" y="10" width="130" height="60" as="geometry" />
        </mxCell>
        <mxCell id="2oSJLv5EbDAendmqQmss-17" value="" style="endArrow=classic;html=1;rounded=0;exitX=1;exitY=0;exitDx=0;exitDy=0;entryX=0;entryY=0.5;entryDx=0;entryDy=0;" parent="1" source="2oSJLv5EbDAendmqQmss-2" target="2oSJLv5EbDAendmqQmss-12" edge="1">
          <mxGeometry relative="1" as="geometry">
            <mxPoint x="330" y="290" as="sourcePoint" />
            <mxPoint x="490" y="200" as="targetPoint" />
          </mxGeometry>
        </mxCell>
        <mxCell id="2oSJLv5EbDAendmqQmss-19" value="Source" style="edgeLabel;resizable=0;html=1;align=left;verticalAlign=bottom;" parent="2oSJLv5EbDAendmqQmss-17" connectable="0" vertex="1">
          <mxGeometry x="-1" relative="1" as="geometry" />
        </mxCell>
        <mxCell id="2oSJLv5EbDAendmqQmss-20" value="Text" style="text;html=1;align=center;verticalAlign=middle;resizable=0;points=[];autosize=1;strokeColor=none;fillColor=none;" parent="1" vertex="1">
          <mxGeometry x="400" y="70" width="50" height="30" as="geometry" />
        </mxCell>
      </root>
    </mxGraphModel>
  </diagram>
  <diagram id="F7jLTQNCGChM5TH_we4c" name="Trang-2">
    <mxGraphModel dx="1229" dy="546" grid="1" gridSize="10" guides="1" tooltips="1" connect="1" arrows="1" fold="1" page="1" pageScale="1" pageWidth="3300" pageHeight="4681" math="0" shadow="0">
      <root>
        <mxCell id="0" />
        <mxCell id="1" parent="0" />
        <mxCell id="wZ0ekpj9lYZld2IMxwDu-1" value="click vào lưu nhà cung cấp" style="rounded=0;whiteSpace=wrap;html=1;" parent="1" vertex="1">
          <mxGeometry x="585" y="470" width="120" height="60" as="geometry" />
        </mxCell>
        <mxCell id="wZ0ekpj9lYZld2IMxwDu-2" value="Read mã,tên,địa chỉ,mã doanh nghiệp,sdt,email" style="rounded=0;whiteSpace=wrap;html=1;" parent="1" vertex="1">
          <mxGeometry x="585" y="578" width="120" height="60" as="geometry" />
        </mxCell>
        <mxCell id="wZ0ekpj9lYZld2IMxwDu-4" value="&lt;p class=&quot;MsoNormal&quot;&gt;if (ten.equals(&quot;&quot;) ||&lt;br/&gt;dc.equals(&quot;&quot;) || madn.equals(&quot;&quot;) ||&lt;br/&gt;sdt.equals(&quot;&quot;) || email.equals(&quot;&quot;))&lt;/p&gt;" style="rhombus;whiteSpace=wrap;html=1;" parent="1" vertex="1">
          <mxGeometry x="510" y="680" width="270" height="120" as="geometry" />
        </mxCell>
        <mxCell id="wZ0ekpj9lYZld2IMxwDu-5" value="Yes" style="text;html=1;align=center;verticalAlign=middle;resizable=0;points=[];autosize=1;strokeColor=none;fillColor=none;" parent="1" vertex="1">
          <mxGeometry x="860" y="730" width="40" height="30" as="geometry" />
        </mxCell>
        <mxCell id="wZ0ekpj9lYZld2IMxwDu-6" value="No" style="text;html=1;align=center;verticalAlign=middle;resizable=0;points=[];autosize=1;strokeColor=none;fillColor=none;" parent="1" vertex="1">
          <mxGeometry x="375" y="740" width="40" height="30" as="geometry" />
        </mxCell>
        <mxCell id="wZ0ekpj9lYZld2IMxwDu-7" value="JOptionPane.showMessageDialog(null, &quot;Vui lòng nhập dủ thông tin&quot;);" style="rounded=0;whiteSpace=wrap;html=1;" parent="1" vertex="1">
          <mxGeometry x="820" y="860" width="210" height="90" as="geometry" />
        </mxCell>
        <mxCell id="wZ0ekpj9lYZld2IMxwDu-8" value="return" style="rounded=0;whiteSpace=wrap;html=1;" parent="1" vertex="1">
          <mxGeometry x="1080" y="1048" width="110" height="60" as="geometry" />
        </mxCell>
        <mxCell id="wZ0ekpj9lYZld2IMxwDu-9" value="if (!checkemail(email))" style="rhombus;whiteSpace=wrap;html=1;" parent="1" vertex="1">
          <mxGeometry x="570" y="1150" width="150" height="80" as="geometry" />
        </mxCell>
        <mxCell id="wZ0ekpj9lYZld2IMxwDu-10" value="JOptionPane.showMessageDialog(null, &quot;Email nhập không đúng định dạng &quot;);" style="whiteSpace=wrap;html=1;" parent="1" vertex="1">
          <mxGeometry x="780" y="1290" width="270" height="70" as="geometry" />
        </mxCell>
        <mxCell id="wZ0ekpj9lYZld2IMxwDu-11" value="return" style="rounded=0;whiteSpace=wrap;html=1;" parent="1" vertex="1">
          <mxGeometry x="855" y="1450" width="120" height="60" as="geometry" />
        </mxCell>
        <mxCell id="wZ0ekpj9lYZld2IMxwDu-12" value="" style="endArrow=classic;html=1;rounded=0;entryX=0.5;entryY=0;entryDx=0;entryDy=0;exitX=0.5;exitY=1;exitDx=0;exitDy=0;" parent="1" source="wZ0ekpj9lYZld2IMxwDu-1" target="wZ0ekpj9lYZld2IMxwDu-2" edge="1">
          <mxGeometry width="50" height="50" relative="1" as="geometry">
            <mxPoint x="650" y="770" as="sourcePoint" />
            <mxPoint x="700" y="720" as="targetPoint" />
          </mxGeometry>
        </mxCell>
        <mxCell id="wZ0ekpj9lYZld2IMxwDu-13" value="" style="endArrow=classic;html=1;rounded=0;entryX=0.5;entryY=0;entryDx=0;entryDy=0;exitX=0.5;exitY=1;exitDx=0;exitDy=0;" parent="1" source="wZ0ekpj9lYZld2IMxwDu-2" target="wZ0ekpj9lYZld2IMxwDu-4" edge="1">
          <mxGeometry width="50" height="50" relative="1" as="geometry">
            <mxPoint x="650" y="670" as="sourcePoint" />
            <mxPoint x="660" y="590" as="targetPoint" />
          </mxGeometry>
        </mxCell>
        <mxCell id="wZ0ekpj9lYZld2IMxwDu-14" style="edgeStyle=orthogonalEdgeStyle;rounded=0;orthogonalLoop=1;jettySize=auto;html=1;exitX=0.5;exitY=1;exitDx=0;exitDy=0;" parent="1" source="wZ0ekpj9lYZld2IMxwDu-2" target="wZ0ekpj9lYZld2IMxwDu-2" edge="1">
          <mxGeometry relative="1" as="geometry" />
        </mxCell>
        <mxCell id="wZ0ekpj9lYZld2IMxwDu-15" value="" style="endArrow=classic;html=1;rounded=0;entryX=0.5;entryY=0;entryDx=0;entryDy=0;exitX=1;exitY=0.5;exitDx=0;exitDy=0;" parent="1" source="wZ0ekpj9lYZld2IMxwDu-4" target="wZ0ekpj9lYZld2IMxwDu-7" edge="1">
          <mxGeometry width="50" height="50" relative="1" as="geometry">
            <mxPoint x="670" y="560" as="sourcePoint" />
            <mxPoint x="670" y="600" as="targetPoint" />
            <Array as="points">
              <mxPoint x="925" y="740" />
            </Array>
          </mxGeometry>
        </mxCell>
        <mxCell id="wZ0ekpj9lYZld2IMxwDu-16" value="" style="endArrow=classic;html=1;rounded=0;entryX=0;entryY=0.5;entryDx=0;entryDy=0;exitX=0.5;exitY=1;exitDx=0;exitDy=0;" parent="1" source="wZ0ekpj9lYZld2IMxwDu-7" target="wZ0ekpj9lYZld2IMxwDu-8" edge="1">
          <mxGeometry width="50" height="50" relative="1" as="geometry">
            <mxPoint x="680" y="570" as="sourcePoint" />
            <mxPoint x="680" y="610" as="targetPoint" />
            <Array as="points">
              <mxPoint x="925" y="1078" />
            </Array>
          </mxGeometry>
        </mxCell>
        <mxCell id="wZ0ekpj9lYZld2IMxwDu-17" value="" style="endArrow=classic;html=1;rounded=0;exitX=0;exitY=0.5;exitDx=0;exitDy=0;" parent="1" source="wZ0ekpj9lYZld2IMxwDu-4" edge="1">
          <mxGeometry width="50" height="50" relative="1" as="geometry">
            <mxPoint x="690" y="580" as="sourcePoint" />
            <mxPoint x="640" y="1040" as="targetPoint" />
            <Array as="points">
              <mxPoint x="370" y="740" />
              <mxPoint x="370" y="1040" />
            </Array>
          </mxGeometry>
        </mxCell>
        <mxCell id="wZ0ekpj9lYZld2IMxwDu-19" value="" style="endArrow=classic;html=1;rounded=0;" parent="1" target="wZ0ekpj9lYZld2IMxwDu-9" edge="1">
          <mxGeometry width="50" height="50" relative="1" as="geometry">
            <mxPoint x="645" y="1040" as="sourcePoint" />
            <mxPoint x="710" y="640" as="targetPoint" />
          </mxGeometry>
        </mxCell>
        <mxCell id="wZ0ekpj9lYZld2IMxwDu-20" value="" style="endArrow=classic;html=1;rounded=0;entryX=0.5;entryY=0;entryDx=0;entryDy=0;exitX=1;exitY=0.5;exitDx=0;exitDy=0;" parent="1" source="wZ0ekpj9lYZld2IMxwDu-9" target="wZ0ekpj9lYZld2IMxwDu-10" edge="1">
          <mxGeometry width="50" height="50" relative="1" as="geometry">
            <mxPoint x="655" y="1080" as="sourcePoint" />
            <mxPoint x="655" y="1160" as="targetPoint" />
            <Array as="points">
              <mxPoint x="915" y="1192" />
            </Array>
          </mxGeometry>
        </mxCell>
        <mxCell id="wZ0ekpj9lYZld2IMxwDu-21" value="" style="endArrow=classic;html=1;rounded=0;entryX=0.5;entryY=0;entryDx=0;entryDy=0;exitX=0.5;exitY=1;exitDx=0;exitDy=0;" parent="1" source="wZ0ekpj9lYZld2IMxwDu-10" target="wZ0ekpj9lYZld2IMxwDu-11" edge="1">
          <mxGeometry width="50" height="50" relative="1" as="geometry">
            <mxPoint x="665" y="1090" as="sourcePoint" />
            <mxPoint x="665" y="1170" as="targetPoint" />
            <Array as="points" />
          </mxGeometry>
        </mxCell>
        <mxCell id="wZ0ekpj9lYZld2IMxwDu-22" value="" style="endArrow=classic;html=1;rounded=0;exitX=0;exitY=0.5;exitDx=0;exitDy=0;" parent="1" source="wZ0ekpj9lYZld2IMxwDu-9" edge="1">
          <mxGeometry width="50" height="50" relative="1" as="geometry">
            <mxPoint x="675" y="1100" as="sourcePoint" />
            <mxPoint x="630" y="1480" as="targetPoint" />
            <Array as="points">
              <mxPoint x="360" y="1190" />
              <mxPoint x="360" y="1480" />
            </Array>
          </mxGeometry>
        </mxCell>
        <mxCell id="wZ0ekpj9lYZld2IMxwDu-23" value="Yes" style="text;html=1;align=center;verticalAlign=middle;resizable=0;points=[];autosize=1;strokeColor=none;fillColor=none;" parent="1" vertex="1">
          <mxGeometry x="830" y="1150" width="40" height="30" as="geometry" />
        </mxCell>
        <mxCell id="wZ0ekpj9lYZld2IMxwDu-24" value="No" style="text;html=1;align=center;verticalAlign=middle;resizable=0;points=[];autosize=1;strokeColor=none;fillColor=none;" parent="1" vertex="1">
          <mxGeometry x="390" y="1150" width="40" height="30" as="geometry" />
        </mxCell>
        <mxCell id="wZ0ekpj9lYZld2IMxwDu-25" value="1" style="text;html=1;align=center;verticalAlign=middle;resizable=0;points=[];autosize=1;strokeColor=none;fillColor=none;" parent="1" vertex="1">
          <mxGeometry x="715" y="480" width="30" height="30" as="geometry" />
        </mxCell>
        <mxCell id="wZ0ekpj9lYZld2IMxwDu-26" value="2" style="text;html=1;align=center;verticalAlign=middle;resizable=0;points=[];autosize=1;strokeColor=none;fillColor=none;" parent="1" vertex="1">
          <mxGeometry x="715" y="595" width="30" height="30" as="geometry" />
        </mxCell>
        <mxCell id="wZ0ekpj9lYZld2IMxwDu-27" value="3" style="text;html=1;align=center;verticalAlign=middle;resizable=0;points=[];autosize=1;strokeColor=none;fillColor=none;" parent="1" vertex="1">
          <mxGeometry x="735" y="688" width="30" height="30" as="geometry" />
        </mxCell>
        <mxCell id="wZ0ekpj9lYZld2IMxwDu-28" value="4" style="text;html=1;align=center;verticalAlign=middle;resizable=0;points=[];autosize=1;strokeColor=none;fillColor=none;" parent="1" vertex="1">
          <mxGeometry x="975" y="828" width="30" height="30" as="geometry" />
        </mxCell>
        <mxCell id="wZ0ekpj9lYZld2IMxwDu-29" value="5" style="text;html=1;align=center;verticalAlign=middle;resizable=0;points=[];autosize=1;strokeColor=none;fillColor=none;" parent="1" vertex="1">
          <mxGeometry x="1120" y="1000" width="30" height="30" as="geometry" />
        </mxCell>
        <mxCell id="wZ0ekpj9lYZld2IMxwDu-30" value="6" style="text;html=1;align=center;verticalAlign=middle;resizable=0;points=[];autosize=1;strokeColor=none;fillColor=none;" parent="1" vertex="1">
          <mxGeometry x="675" y="1138" width="30" height="30" as="geometry" />
        </mxCell>
        <mxCell id="wZ0ekpj9lYZld2IMxwDu-31" value="7" style="text;html=1;align=center;verticalAlign=middle;resizable=0;points=[];autosize=1;strokeColor=none;fillColor=none;" parent="1" vertex="1">
          <mxGeometry x="950" y="1250" width="30" height="30" as="geometry" />
        </mxCell>
        <mxCell id="wZ0ekpj9lYZld2IMxwDu-32" value="8" style="text;html=1;align=center;verticalAlign=middle;resizable=0;points=[];autosize=1;strokeColor=none;fillColor=none;" parent="1" vertex="1">
          <mxGeometry x="950" y="1410" width="30" height="30" as="geometry" />
        </mxCell>
        <mxCell id="wZ0ekpj9lYZld2IMxwDu-33" value="A" style="text;html=1;align=center;verticalAlign=middle;resizable=0;points=[];autosize=1;strokeColor=none;fillColor=none;" parent="1" vertex="1">
          <mxGeometry x="645" y="538" width="30" height="30" as="geometry" />
        </mxCell>
        <mxCell id="wZ0ekpj9lYZld2IMxwDu-34" value="B" style="text;html=1;align=center;verticalAlign=middle;resizable=0;points=[];autosize=1;strokeColor=none;fillColor=none;" parent="1" vertex="1">
          <mxGeometry x="655" y="638" width="30" height="30" as="geometry" />
        </mxCell>
        <mxCell id="wZ0ekpj9lYZld2IMxwDu-35" value="C" style="text;html=1;align=center;verticalAlign=middle;resizable=0;points=[];autosize=1;strokeColor=none;fillColor=none;" parent="1" vertex="1">
          <mxGeometry x="865" y="768" width="30" height="30" as="geometry" />
        </mxCell>
        <mxCell id="wZ0ekpj9lYZld2IMxwDu-36" value="D" style="text;html=1;align=center;verticalAlign=middle;resizable=0;points=[];autosize=1;strokeColor=none;fillColor=none;" parent="1" vertex="1">
          <mxGeometry x="375" y="880" width="30" height="30" as="geometry" />
        </mxCell>
        <mxCell id="wZ0ekpj9lYZld2IMxwDu-37" value="E" style="text;html=1;align=center;verticalAlign=middle;resizable=0;points=[];autosize=1;strokeColor=none;fillColor=none;" parent="1" vertex="1">
          <mxGeometry x="880" y="970" width="30" height="30" as="geometry" />
        </mxCell>
        <mxCell id="wZ0ekpj9lYZld2IMxwDu-38" value="F" style="text;html=1;align=center;verticalAlign=middle;resizable=0;points=[];autosize=1;strokeColor=none;fillColor=none;" parent="1" vertex="1">
          <mxGeometry x="375" y="1250" width="30" height="30" as="geometry" />
        </mxCell>
        <mxCell id="wZ0ekpj9lYZld2IMxwDu-39" value="G" style="text;html=1;align=center;verticalAlign=middle;resizable=0;points=[];autosize=1;strokeColor=none;fillColor=none;" parent="1" vertex="1">
          <mxGeometry x="835" y="1208" width="30" height="30" as="geometry" />
        </mxCell>
        <mxCell id="wZ0ekpj9lYZld2IMxwDu-40" value="H" style="text;html=1;align=center;verticalAlign=middle;resizable=0;points=[];autosize=1;strokeColor=none;fillColor=none;" parent="1" vertex="1">
          <mxGeometry x="855" y="1360" width="30" height="30" as="geometry" />
        </mxCell>
        <mxCell id="wZ0ekpj9lYZld2IMxwDu-41" value="I" style="text;html=1;align=center;verticalAlign=middle;resizable=0;points=[];autosize=1;strokeColor=none;fillColor=none;" parent="1" vertex="1">
          <mxGeometry x="1090" y="1220" width="30" height="30" as="geometry" />
        </mxCell>
        <mxCell id="wZ0ekpj9lYZld2IMxwDu-42" value="" style="endArrow=classic;html=1;rounded=0;exitX=0.5;exitY=1;exitDx=0;exitDy=0;entryX=1;entryY=0.5;entryDx=0;entryDy=0;" parent="1" source="wZ0ekpj9lYZld2IMxwDu-8" edge="1" target="g4c_6h65PSuElQiDOU8y-1">
          <mxGeometry width="50" height="50" relative="1" as="geometry">
            <mxPoint x="935" y="960" as="sourcePoint" />
            <mxPoint x="1150" y="1330" as="targetPoint" />
            <Array as="points">
              <mxPoint x="1135" y="2480" />
            </Array>
          </mxGeometry>
        </mxCell>
        <mxCell id="wZ0ekpj9lYZld2IMxwDu-43" value="if (temp.update())" style="rhombus;whiteSpace=wrap;html=1;" parent="1" vertex="1">
          <mxGeometry x="555" y="1540" width="150" height="80" as="geometry" />
        </mxCell>
        <mxCell id="wZ0ekpj9lYZld2IMxwDu-44" value="" style="endArrow=classic;html=1;rounded=0;entryX=1;entryY=0;entryDx=0;entryDy=0;" parent="1" source="wZ0ekpj9lYZld2IMxwDu-11" edge="1" target="g4c_6h65PSuElQiDOU8y-1">
          <mxGeometry width="50" height="50" relative="1" as="geometry">
            <mxPoint x="925" y="1370" as="sourcePoint" />
            <mxPoint x="630" y="1480" as="targetPoint" />
            <Array as="points">
              <mxPoint x="1080" y="1480" />
              <mxPoint x="1080" y="2450" />
            </Array>
          </mxGeometry>
        </mxCell>
        <mxCell id="wZ0ekpj9lYZld2IMxwDu-45" value="" style="endArrow=classic;html=1;rounded=0;entryX=0.5;entryY=0;entryDx=0;entryDy=0;" parent="1" target="wZ0ekpj9lYZld2IMxwDu-43" edge="1">
          <mxGeometry width="50" height="50" relative="1" as="geometry">
            <mxPoint x="630" y="1480" as="sourcePoint" />
            <mxPoint x="935" y="1470" as="targetPoint" />
            <Array as="points" />
          </mxGeometry>
        </mxCell>
        <mxCell id="wZ0ekpj9lYZld2IMxwDu-46" value="K" style="text;html=1;align=center;verticalAlign=middle;resizable=0;points=[];autosize=1;strokeColor=none;fillColor=none;" parent="1" vertex="1">
          <mxGeometry x="930" y="1380" width="30" height="30" as="geometry" />
        </mxCell>
        <mxCell id="wZ0ekpj9lYZld2IMxwDu-47" value="9" style="text;html=1;align=center;verticalAlign=middle;resizable=0;points=[];autosize=1;strokeColor=none;fillColor=none;" parent="1" vertex="1">
          <mxGeometry x="670" y="1530" width="30" height="30" as="geometry" />
        </mxCell>
        <mxCell id="wZ0ekpj9lYZld2IMxwDu-48" value="JOptionPane.showMessageDialog(null, &quot;Cập nhật thành công&quot;);" style="rounded=0;whiteSpace=wrap;html=1;" parent="1" vertex="1">
          <mxGeometry x="835" y="1700" width="210" height="60" as="geometry" />
        </mxCell>
        <mxCell id="wZ0ekpj9lYZld2IMxwDu-49" value="" style="endArrow=classic;html=1;rounded=0;entryX=0.316;entryY=0.024;entryDx=0;entryDy=0;exitX=1;exitY=0.5;exitDx=0;exitDy=0;entryPerimeter=0;" parent="1" target="wZ0ekpj9lYZld2IMxwDu-48" edge="1">
          <mxGeometry width="50" height="50" relative="1" as="geometry">
            <mxPoint x="705" y="1580" as="sourcePoint" />
            <mxPoint x="900" y="1680" as="targetPoint" />
            <Array as="points">
              <mxPoint x="900" y="1582" />
            </Array>
          </mxGeometry>
        </mxCell>
        <mxCell id="wZ0ekpj9lYZld2IMxwDu-50" value="" style="endArrow=classic;html=1;rounded=0;exitX=0;exitY=0.5;exitDx=0;exitDy=0;" parent="1" edge="1">
          <mxGeometry width="50" height="50" relative="1" as="geometry">
            <mxPoint x="560" y="1580" as="sourcePoint" />
            <mxPoint x="570" y="1870" as="targetPoint" />
            <Array as="points">
              <mxPoint x="350" y="1580" />
              <mxPoint x="350" y="1870" />
            </Array>
          </mxGeometry>
        </mxCell>
        <mxCell id="wZ0ekpj9lYZld2IMxwDu-51" value="Mainframe.listcc.load();" style="rounded=0;whiteSpace=wrap;html=1;" parent="1" vertex="1">
          <mxGeometry x="570" y="1840" width="180" height="60" as="geometry" />
        </mxCell>
        <mxCell id="wZ0ekpj9lYZld2IMxwDu-52" value="" style="endArrow=classic;html=1;rounded=0;entryX=1;entryY=0.5;entryDx=0;entryDy=0;exitX=0.34;exitY=0.978;exitDx=0;exitDy=0;exitPerimeter=0;" parent="1" source="wZ0ekpj9lYZld2IMxwDu-48" target="wZ0ekpj9lYZld2IMxwDu-51" edge="1">
          <mxGeometry width="50" height="50" relative="1" as="geometry">
            <mxPoint x="715" y="1590" as="sourcePoint" />
            <mxPoint x="770" y="1880" as="targetPoint" />
            <Array as="points">
              <mxPoint x="906" y="1870" />
            </Array>
          </mxGeometry>
        </mxCell>
        <mxCell id="wZ0ekpj9lYZld2IMxwDu-53" value="" style="endArrow=classic;html=1;rounded=0;entryX=0.5;entryY=0;entryDx=0;entryDy=0;" parent="1" edge="1">
          <mxGeometry width="50" height="50" relative="1" as="geometry">
            <mxPoint x="653.95" y="2140" as="sourcePoint" />
            <mxPoint x="653.95" y="2200" as="targetPoint" />
            <Array as="points" />
          </mxGeometry>
        </mxCell>
        <mxCell id="wZ0ekpj9lYZld2IMxwDu-54" value="" style="endArrow=classic;html=1;rounded=0;entryX=0.5;entryY=0;entryDx=0;entryDy=0;" parent="1" edge="1">
          <mxGeometry width="50" height="50" relative="1" as="geometry">
            <mxPoint x="653.95" y="2020" as="sourcePoint" />
            <mxPoint x="653.95" y="2080" as="targetPoint" />
            <Array as="points" />
          </mxGeometry>
        </mxCell>
        <mxCell id="wZ0ekpj9lYZld2IMxwDu-55" value="" style="endArrow=classic;html=1;rounded=0;entryX=0.5;entryY=0;entryDx=0;entryDy=0;" parent="1" edge="1">
          <mxGeometry width="50" height="50" relative="1" as="geometry">
            <mxPoint x="653.95" y="1900" as="sourcePoint" />
            <mxPoint x="653.95" y="1960" as="targetPoint" />
            <Array as="points" />
          </mxGeometry>
        </mxCell>
        <mxCell id="wZ0ekpj9lYZld2IMxwDu-56" value="dsnhacungcapcontrol.newtable();" style="rounded=0;whiteSpace=wrap;html=1;" parent="1" vertex="1">
          <mxGeometry x="570" y="1960" width="190" height="60" as="geometry" />
        </mxCell>
        <mxCell id="wZ0ekpj9lYZld2IMxwDu-57" value="khothuoccontrol.newlist();" style="rounded=0;whiteSpace=wrap;html=1;" parent="1" vertex="1">
          <mxGeometry x="570" y="2080" width="180" height="60" as="geometry" />
        </mxCell>
        <mxCell id="wZ0ekpj9lYZld2IMxwDu-58" value="themthuoccontrol.newlist();" style="rounded=0;whiteSpace=wrap;html=1;" parent="1" vertex="1">
          <mxGeometry x="570" y="2200" width="180" height="60" as="geometry" />
        </mxCell>
        <mxCell id="wZ0ekpj9lYZld2IMxwDu-59" value="dsnhaphangcontrol.newcombo();" style="rounded=0;whiteSpace=wrap;html=1;" parent="1" vertex="1">
          <mxGeometry x="570" y="2320" width="180" height="60" as="geometry" />
        </mxCell>
        <mxCell id="wZ0ekpj9lYZld2IMxwDu-60" value="" style="endArrow=classic;html=1;rounded=0;entryX=0.5;entryY=0;entryDx=0;entryDy=0;" parent="1" edge="1">
          <mxGeometry width="50" height="50" relative="1" as="geometry">
            <mxPoint x="653.95" y="2260" as="sourcePoint" />
            <mxPoint x="653.95" y="2320" as="targetPoint" />
            <Array as="points" />
          </mxGeometry>
        </mxCell>
        <mxCell id="g4c_6h65PSuElQiDOU8y-1" value="end btn lưu" style="whiteSpace=wrap;html=1;" vertex="1" parent="1">
          <mxGeometry x="600" y="2450" width="120" height="60" as="geometry" />
        </mxCell>
        <mxCell id="g4c_6h65PSuElQiDOU8y-2" value="" style="endArrow=classic;html=1;rounded=0;entryX=0.437;entryY=-0.003;entryDx=0;entryDy=0;entryPerimeter=0;" edge="1" parent="1" target="g4c_6h65PSuElQiDOU8y-1">
          <mxGeometry width="50" height="50" relative="1" as="geometry">
            <mxPoint x="654" y="2380" as="sourcePoint" />
            <mxPoint x="654" y="2440" as="targetPoint" />
            <Array as="points" />
          </mxGeometry>
        </mxCell>
        <mxCell id="g4c_6h65PSuElQiDOU8y-5" value="L" style="text;html=1;align=center;verticalAlign=middle;resizable=0;points=[];autosize=1;strokeColor=none;fillColor=none;" vertex="1" parent="1">
          <mxGeometry x="860" y="1630" width="30" height="30" as="geometry" />
        </mxCell>
        <mxCell id="g4c_6h65PSuElQiDOU8y-6" value="M" style="text;html=1;align=center;verticalAlign=middle;resizable=0;points=[];autosize=1;strokeColor=none;fillColor=none;" vertex="1" parent="1">
          <mxGeometry x="360" y="1650" width="30" height="30" as="geometry" />
        </mxCell>
        <mxCell id="g4c_6h65PSuElQiDOU8y-7" value="Text" style="text;html=1;align=center;verticalAlign=middle;resizable=0;points=[];autosize=1;strokeColor=none;fillColor=none;" vertex="1" parent="1">
          <mxGeometry x="1025" y="1598" width="50" height="30" as="geometry" />
        </mxCell>
      </root>
    </mxGraphModel>
  </diagram>
</mxfile>
